<mxfile host="app.diagrams.net" modified="2024-03-18T02:16:07.296Z" agent="Mozilla/5.0 (Windows NT 10.0; Win64; x64) AppleWebKit/537.36 (KHTML, like Gecko) Chrome/122.0.0.0 Safari/537.36" etag="uANSCyq-q21VkVtA-Ge5" version="22.1.20" type="github">
  <diagram id="C5RBs43oDa-KdzZeNtuy" name="Page-1">
    <mxGraphModel dx="2206" dy="2317" grid="1" gridSize="10" guides="1" tooltips="1" connect="1" arrows="1" fold="1" page="1" pageScale="1" pageWidth="827" pageHeight="1169" math="0" shadow="0">
      <root>
        <mxCell id="WIyWlLk6GJQsqaUBKTNV-0" />
        <mxCell id="WIyWlLk6GJQsqaUBKTNV-1" parent="WIyWlLk6GJQsqaUBKTNV-0" />
        <mxCell id="WIyWlLk6GJQsqaUBKTNV-7" value="&lt;div style=&quot;line-height: 120%;&quot;&gt;&lt;br&gt;&lt;/div&gt;" style="rounded=1;whiteSpace=wrap;html=1;fontSize=12;glass=0;strokeWidth=1;shadow=0;align=center;fontFamily=Tahoma;" parent="WIyWlLk6GJQsqaUBKTNV-1" vertex="1">
          <mxGeometry x="80" y="300" width="520" height="310" as="geometry" />
        </mxCell>
        <mxCell id="YY96wNU4U0IoffeVZJcr-44" value="" style="rounded=0;whiteSpace=wrap;html=1;sketch=1;hachureGap=4;jiggle=2;curveFitting=1;fontFamily=Architects Daughter;fontSource=https%3A%2F%2Ffonts.googleapis.com%2Fcss%3Ffamily%3DArchitects%2BDaughter;fontSize=20;labelBorderColor=#B3B3B3;" vertex="1" parent="WIyWlLk6GJQsqaUBKTNV-1">
          <mxGeometry x="90" y="370" width="160" height="210" as="geometry" />
        </mxCell>
        <mxCell id="YY96wNU4U0IoffeVZJcr-3" value="&lt;h3&gt;&lt;font style=&quot;font-size: 20px;&quot;&gt;Redis&lt;/font&gt;&lt;/h3&gt;" style="rounded=0;whiteSpace=wrap;html=1;sketch=1;hachureGap=4;jiggle=2;curveFitting=1;fontFamily=Tahoma;fontSize=20;labelBorderColor=none;" vertex="1" parent="WIyWlLk6GJQsqaUBKTNV-1">
          <mxGeometry x="250" y="180" width="360" height="60" as="geometry" />
        </mxCell>
        <mxCell id="YY96wNU4U0IoffeVZJcr-5" value="pod-2" style="rounded=0;whiteSpace=wrap;html=1;sketch=1;hachureGap=4;jiggle=2;curveFitting=1;fontFamily=Tahoma;fontSize=20;" vertex="1" parent="WIyWlLk6GJQsqaUBKTNV-1">
          <mxGeometry x="265" y="370" width="155" height="90" as="geometry" />
        </mxCell>
        <mxCell id="YY96wNU4U0IoffeVZJcr-6" value="pod-3" style="rounded=0;whiteSpace=wrap;html=1;sketch=1;hachureGap=4;jiggle=2;curveFitting=1;fontFamily=Tahoma;fontSize=20;" vertex="1" parent="WIyWlLk6GJQsqaUBKTNV-1">
          <mxGeometry x="430" y="370" width="150" height="90" as="geometry" />
        </mxCell>
        <mxCell id="YY96wNU4U0IoffeVZJcr-8" value="&lt;h4&gt;businessGateway&lt;/h4&gt;" style="text;html=1;align=center;verticalAlign=middle;resizable=0;points=[];autosize=1;strokeColor=none;fillColor=none;fontSize=20;fontFamily=Tahoma;" vertex="1" parent="WIyWlLk6GJQsqaUBKTNV-1">
          <mxGeometry x="240" y="290" width="200" height="90" as="geometry" />
        </mxCell>
        <mxCell id="YY96wNU4U0IoffeVZJcr-10" value="Agent-client-p1" style="rounded=1;whiteSpace=wrap;html=1;sketch=1;hachureGap=4;jiggle=2;curveFitting=1;fontFamily=Tahoma;fontSize=20;" vertex="1" parent="WIyWlLk6GJQsqaUBKTNV-1">
          <mxGeometry x="65" y="744.01" width="175" height="60" as="geometry" />
        </mxCell>
        <mxCell id="YY96wNU4U0IoffeVZJcr-11" value="" style="endArrow=classic;html=1;rounded=0;sketch=1;hachureGap=4;jiggle=2;curveFitting=1;fontFamily=Tahoma;fontSize=16;entryX=0.425;entryY=-0.056;entryDx=0;entryDy=0;exitX=0.175;exitY=1.014;exitDx=0;exitDy=0;exitPerimeter=0;entryPerimeter=0;" edge="1" parent="WIyWlLk6GJQsqaUBKTNV-1">
          <mxGeometry width="50" height="50" relative="1" as="geometry">
            <mxPoint x="158" y="110.83999999999992" as="sourcePoint" />
            <mxPoint x="158" y="358.2399999999998" as="targetPoint" />
          </mxGeometry>
        </mxCell>
        <mxCell id="YY96wNU4U0IoffeVZJcr-41" value="project-1 invoke" style="edgeLabel;html=1;align=center;verticalAlign=middle;resizable=0;points=[];fontSize=20;fontFamily=Tahoma;" vertex="1" connectable="0" parent="YY96wNU4U0IoffeVZJcr-11">
          <mxGeometry x="-0.1173" y="1" relative="1" as="geometry">
            <mxPoint as="offset" />
          </mxGeometry>
        </mxCell>
        <mxCell id="YY96wNU4U0IoffeVZJcr-18" value="agent server" style="rounded=0;whiteSpace=wrap;html=1;sketch=1;hachureGap=4;jiggle=2;curveFitting=1;fontFamily=Tahoma;fontSize=20;" vertex="1" parent="WIyWlLk6GJQsqaUBKTNV-1">
          <mxGeometry x="90" y="520" width="75" height="60" as="geometry" />
        </mxCell>
        <mxCell id="YY96wNU4U0IoffeVZJcr-19" value="remote client" style="rounded=0;whiteSpace=wrap;html=1;sketch=1;hachureGap=4;jiggle=2;curveFitting=1;fontFamily=Tahoma;fontSize=20;" vertex="1" parent="WIyWlLk6GJQsqaUBKTNV-1">
          <mxGeometry x="90" y="490" width="160" height="30" as="geometry" />
        </mxCell>
        <mxCell id="YY96wNU4U0IoffeVZJcr-20" value="agent server" style="rounded=0;whiteSpace=wrap;html=1;sketch=1;hachureGap=4;jiggle=2;curveFitting=1;fontFamily=Tahoma;fontSize=20;" vertex="1" parent="WIyWlLk6GJQsqaUBKTNV-1">
          <mxGeometry x="260" y="490" width="75" height="60" as="geometry" />
        </mxCell>
        <mxCell id="YY96wNU4U0IoffeVZJcr-21" value="remote client" style="rounded=0;whiteSpace=wrap;html=1;sketch=1;hachureGap=4;jiggle=2;curveFitting=1;fontFamily=Tahoma;fontSize=20;" vertex="1" parent="WIyWlLk6GJQsqaUBKTNV-1">
          <mxGeometry x="260" y="460" width="160" height="30" as="geometry" />
        </mxCell>
        <mxCell id="YY96wNU4U0IoffeVZJcr-22" value="agent server" style="rounded=0;whiteSpace=wrap;html=1;sketch=1;hachureGap=4;jiggle=2;curveFitting=1;fontFamily=Tahoma;fontSize=20;" vertex="1" parent="WIyWlLk6GJQsqaUBKTNV-1">
          <mxGeometry x="430" y="520" width="75" height="60" as="geometry" />
        </mxCell>
        <mxCell id="YY96wNU4U0IoffeVZJcr-23" value="remote client" style="rounded=0;whiteSpace=wrap;html=1;sketch=1;hachureGap=4;jiggle=2;curveFitting=1;fontFamily=Tahoma;fontSize=20;" vertex="1" parent="WIyWlLk6GJQsqaUBKTNV-1">
          <mxGeometry x="430" y="460" width="150" height="30" as="geometry" />
        </mxCell>
        <mxCell id="YY96wNU4U0IoffeVZJcr-24" value="Agent-client-p3" style="rounded=1;whiteSpace=wrap;html=1;sketch=1;hachureGap=4;jiggle=2;curveFitting=1;fontFamily=Tahoma;fontSize=20;" vertex="1" parent="WIyWlLk6GJQsqaUBKTNV-1">
          <mxGeometry x="435" y="744.01" width="175" height="60" as="geometry" />
        </mxCell>
        <mxCell id="YY96wNU4U0IoffeVZJcr-27" value="" style="endArrow=classic;startArrow=classic;html=1;rounded=0;sketch=1;hachureGap=4;jiggle=2;curveFitting=1;fontFamily=Tahoma;fontSize=16;exitX=0.5;exitY=0;exitDx=0;exitDy=0;entryX=0.5;entryY=1;entryDx=0;entryDy=0;" edge="1" parent="WIyWlLk6GJQsqaUBKTNV-1" source="YY96wNU4U0IoffeVZJcr-10" target="YY96wNU4U0IoffeVZJcr-18">
          <mxGeometry width="50" height="50" relative="1" as="geometry">
            <mxPoint x="90" y="570" as="sourcePoint" />
            <mxPoint x="140" y="530" as="targetPoint" />
          </mxGeometry>
        </mxCell>
        <mxCell id="YY96wNU4U0IoffeVZJcr-46" value="websocket" style="edgeLabel;html=1;align=center;verticalAlign=middle;resizable=0;points=[];fontSize=20;fontFamily=Architects Daughter;" vertex="1" connectable="0" parent="YY96wNU4U0IoffeVZJcr-27">
          <mxGeometry x="-0.0067" y="2" relative="1" as="geometry">
            <mxPoint as="offset" />
          </mxGeometry>
        </mxCell>
        <mxCell id="YY96wNU4U0IoffeVZJcr-28" value="" style="endArrow=classic;startArrow=classic;html=1;rounded=0;sketch=1;hachureGap=4;jiggle=2;curveFitting=1;fontFamily=Tahoma;fontSize=16;exitX=0.5;exitY=0;exitDx=0;exitDy=0;" edge="1" parent="WIyWlLk6GJQsqaUBKTNV-1" source="YY96wNU4U0IoffeVZJcr-24" target="YY96wNU4U0IoffeVZJcr-22">
          <mxGeometry width="50" height="50" relative="1" as="geometry">
            <mxPoint x="350" y="640" as="sourcePoint" />
            <mxPoint x="310" y="520" as="targetPoint" />
          </mxGeometry>
        </mxCell>
        <mxCell id="YY96wNU4U0IoffeVZJcr-47" value="websocket" style="edgeLabel;html=1;align=center;verticalAlign=middle;resizable=0;points=[];fontSize=20;fontFamily=Architects Daughter;" vertex="1" connectable="0" parent="YY96wNU4U0IoffeVZJcr-28">
          <mxGeometry x="-0.0538" y="-3" relative="1" as="geometry">
            <mxPoint as="offset" />
          </mxGeometry>
        </mxCell>
        <mxCell id="YY96wNU4U0IoffeVZJcr-29" value="" style="endArrow=classic;html=1;rounded=0;sketch=1;hachureGap=4;jiggle=2;curveFitting=1;fontFamily=Tahoma;fontSize=16;entryX=0.548;entryY=1.067;entryDx=0;entryDy=0;entryPerimeter=0;" edge="1" parent="WIyWlLk6GJQsqaUBKTNV-1" target="YY96wNU4U0IoffeVZJcr-3">
          <mxGeometry width="50" height="50" relative="1" as="geometry">
            <mxPoint x="470" y="370" as="sourcePoint" />
            <mxPoint x="520" y="320" as="targetPoint" />
          </mxGeometry>
        </mxCell>
        <mxCell id="YY96wNU4U0IoffeVZJcr-30" value="" style="endArrow=classic;html=1;rounded=0;sketch=1;hachureGap=4;jiggle=2;curveFitting=1;fontFamily=Tahoma;fontSize=16;entryX=0.224;entryY=1.067;entryDx=0;entryDy=0;entryPerimeter=0;" edge="1" parent="WIyWlLk6GJQsqaUBKTNV-1" target="YY96wNU4U0IoffeVZJcr-3">
          <mxGeometry width="50" height="50" relative="1" as="geometry">
            <mxPoint x="215" y="370" as="sourcePoint" />
            <mxPoint x="265" y="320" as="targetPoint" />
          </mxGeometry>
        </mxCell>
        <mxCell id="YY96wNU4U0IoffeVZJcr-31" value="" style="endArrow=classic;html=1;rounded=0;sketch=1;hachureGap=4;jiggle=2;curveFitting=1;fontFamily=Tahoma;fontSize=16;entryX=0.706;entryY=1.043;entryDx=0;entryDy=0;entryPerimeter=0;" edge="1" parent="WIyWlLk6GJQsqaUBKTNV-1" source="YY96wNU4U0IoffeVZJcr-3">
          <mxGeometry width="50" height="50" relative="1" as="geometry">
            <mxPoint x="390" y="390" as="sourcePoint" />
            <mxPoint x="455.3599999999999" y="112.57999999999993" as="targetPoint" />
          </mxGeometry>
        </mxCell>
        <mxCell id="YY96wNU4U0IoffeVZJcr-32" value="p1" style="rounded=0;whiteSpace=wrap;html=1;sketch=1;hachureGap=4;jiggle=2;curveFitting=1;fontFamily=Tahoma;fontSize=20;" vertex="1" parent="WIyWlLk6GJQsqaUBKTNV-1">
          <mxGeometry x="65" y="930" width="170" height="60" as="geometry" />
        </mxCell>
        <mxCell id="YY96wNU4U0IoffeVZJcr-33" value="p3" style="rounded=0;whiteSpace=wrap;html=1;sketch=1;hachureGap=4;jiggle=2;curveFitting=1;fontFamily=Tahoma;fontSize=20;" vertex="1" parent="WIyWlLk6GJQsqaUBKTNV-1">
          <mxGeometry x="435" y="930" width="170" height="60" as="geometry" />
        </mxCell>
        <mxCell id="YY96wNU4U0IoffeVZJcr-35" value="&lt;h3&gt;&lt;br&gt;&lt;/h3&gt;" style="rounded=1;whiteSpace=wrap;html=1;fontSize=12;glass=0;strokeWidth=1;shadow=0;fontFamily=Tahoma;" vertex="1" parent="WIyWlLk6GJQsqaUBKTNV-1">
          <mxGeometry x="67.5" y="-30" width="550" height="140" as="geometry" />
        </mxCell>
        <mxCell id="YY96wNU4U0IoffeVZJcr-34" value="p2" style="rounded=0;whiteSpace=wrap;html=1;sketch=1;hachureGap=4;jiggle=2;curveFitting=1;fontFamily=Tahoma;fontSize=20;" vertex="1" parent="WIyWlLk6GJQsqaUBKTNV-1">
          <mxGeometry x="250" y="930" width="170" height="60" as="geometry" />
        </mxCell>
        <mxCell id="YY96wNU4U0IoffeVZJcr-36" value="&lt;h4&gt;interceptor&lt;/h4&gt;" style="rounded=0;whiteSpace=wrap;html=1;sketch=1;hachureGap=4;jiggle=2;curveFitting=1;fontFamily=Tahoma;fontSize=20;" vertex="1" parent="WIyWlLk6GJQsqaUBKTNV-1">
          <mxGeometry x="70" y="50" width="550" height="60" as="geometry" />
        </mxCell>
        <mxCell id="YY96wNU4U0IoffeVZJcr-37" value="&lt;h3&gt;CustomDataSource&lt;/h3&gt;" style="text;html=1;align=center;verticalAlign=middle;resizable=0;points=[];autosize=1;strokeColor=none;fillColor=none;fontSize=20;fontFamily=Tahoma;" vertex="1" parent="WIyWlLk6GJQsqaUBKTNV-1">
          <mxGeometry x="215" y="-40" width="250" height="90" as="geometry" />
        </mxCell>
        <mxCell id="YY96wNU4U0IoffeVZJcr-38" value="" style="endArrow=classic;html=1;rounded=0;sketch=1;hachureGap=4;jiggle=2;curveFitting=1;fontFamily=Tahoma;fontSize=16;entryX=0.5;entryY=0;entryDx=0;entryDy=0;exitX=0.75;exitY=1;exitDx=0;exitDy=0;" edge="1" parent="WIyWlLk6GJQsqaUBKTNV-1" source="YY96wNU4U0IoffeVZJcr-21" target="YY96wNU4U0IoffeVZJcr-34">
          <mxGeometry width="50" height="50" relative="1" as="geometry">
            <mxPoint x="380" y="520" as="sourcePoint" />
            <mxPoint x="430" y="470" as="targetPoint" />
          </mxGeometry>
        </mxCell>
        <mxCell id="YY96wNU4U0IoffeVZJcr-48" value="http" style="edgeLabel;html=1;align=center;verticalAlign=middle;resizable=0;points=[];fontSize=20;fontFamily=Architects Daughter;" vertex="1" connectable="0" parent="YY96wNU4U0IoffeVZJcr-38">
          <mxGeometry x="0.0068" y="1" relative="1" as="geometry">
            <mxPoint as="offset" />
          </mxGeometry>
        </mxCell>
        <mxCell id="YY96wNU4U0IoffeVZJcr-39" value="" style="endArrow=classic;html=1;rounded=0;sketch=1;hachureGap=4;jiggle=2;curveFitting=1;fontFamily=Tahoma;fontSize=16;entryX=0.5;entryY=0;entryDx=0;entryDy=0;" edge="1" parent="WIyWlLk6GJQsqaUBKTNV-1" target="YY96wNU4U0IoffeVZJcr-32">
          <mxGeometry width="50" height="50" relative="1" as="geometry">
            <mxPoint x="155" y="804.01" as="sourcePoint" />
            <mxPoint x="205" y="754.01" as="targetPoint" />
          </mxGeometry>
        </mxCell>
        <mxCell id="YY96wNU4U0IoffeVZJcr-45" value="http" style="edgeLabel;html=1;align=center;verticalAlign=middle;resizable=0;points=[];fontSize=20;fontFamily=Architects Daughter;" vertex="1" connectable="0" parent="YY96wNU4U0IoffeVZJcr-39">
          <mxGeometry x="-0.1667" y="-2" relative="1" as="geometry">
            <mxPoint as="offset" />
          </mxGeometry>
        </mxCell>
        <mxCell id="YY96wNU4U0IoffeVZJcr-40" value="" style="endArrow=classic;html=1;rounded=0;sketch=1;hachureGap=4;jiggle=2;curveFitting=1;fontFamily=Tahoma;fontSize=16;entryX=0.5;entryY=0;entryDx=0;entryDy=0;" edge="1" parent="WIyWlLk6GJQsqaUBKTNV-1" target="YY96wNU4U0IoffeVZJcr-33">
          <mxGeometry width="50" height="50" relative="1" as="geometry">
            <mxPoint x="525" y="804.01" as="sourcePoint" />
            <mxPoint x="575" y="754.01" as="targetPoint" />
          </mxGeometry>
        </mxCell>
        <mxCell id="YY96wNU4U0IoffeVZJcr-50" value="http" style="edgeLabel;html=1;align=center;verticalAlign=middle;resizable=0;points=[];fontSize=20;fontFamily=Architects Daughter;" vertex="1" connectable="0" parent="YY96wNU4U0IoffeVZJcr-40">
          <mxGeometry x="-0.2333" y="1" relative="1" as="geometry">
            <mxPoint as="offset" />
          </mxGeometry>
        </mxCell>
        <mxCell id="YY96wNU4U0IoffeVZJcr-42" value="" style="endArrow=classic;html=1;rounded=0;sketch=1;hachureGap=4;jiggle=2;curveFitting=1;fontFamily=Architects Daughter;fontSource=https%3A%2F%2Ffonts.googleapis.com%2Fcss%3Ffamily%3DArchitects%2BDaughter;fontSize=16;entryX=1;entryY=0.5;entryDx=0;entryDy=0;exitX=0.75;exitY=1;exitDx=0;exitDy=0;" edge="1" parent="WIyWlLk6GJQsqaUBKTNV-1" source="YY96wNU4U0IoffeVZJcr-19" target="YY96wNU4U0IoffeVZJcr-18">
          <mxGeometry width="50" height="50" relative="1" as="geometry">
            <mxPoint x="200" y="490" as="sourcePoint" />
            <mxPoint x="250" y="440" as="targetPoint" />
          </mxGeometry>
        </mxCell>
      </root>
    </mxGraphModel>
  </diagram>
</mxfile>
